<svg width="32" height="32" viewBox="0 0 32 32" fill="none" xmlns="http://www.w3.org/2000/svg">
  <circle cx="16" cy="16" r="16" fill="#0A3A7A"/>
  <path d="M16 6C15 6 14 7 14 8C14 9 13 10 12 10C11 10 10 9 9 9C8 9 7 10 7 11C7 12 8 13 9 14L10 16V18C10 20 11 22 13 23L14 24V27C14 28 15 29 16 29C17 29 18 28 18 27V24L19 23C21 22 22 20 22 18V16L23 14C24 13 25 12 25 11C25 10 24 9 23 9C22 9 21 10 20 10C19 10 18 9 18 8C18 7 17 6 16 6Z" fill="white"/>
  <path d="M12 10L10 6L9 7L11 11M20 10L22 6L23 7L21 11" stroke="white" stroke-width="1.5" stroke-linecap="round" stroke-linejoin="round"/>
</svg>
