<svg width="512" height="512" viewBox="0 0 512 512" xmlns="http://www.w3.org/2000/svg">
  <circle cx="256" cy="256" r="256" fill="#0A3A7A"/>
  <g transform="translate(-188, -34) scale(1.11)" fill="#FFFFFF" fill-rule="evenodd">
    <path d="M477.470575,194.364748 C478.959204,195.306431 480.427697,196.277068 481.875263,197.275868 C476.721567,201.62836 471.461658,205.482885 466.093977,208.841312 C470.146017,204.434645 473.752881,199.602707 476.838407,194.412911 C474.157729,192.74749 471.414308,191.175684 468.610699,189.700899 C473.222699,181.891899 476.509699,173.179899 478.126699,163.844899 C478.598699,161.123899 481.186699,159.300899 483.908699,159.771899 C486.628699,160.243899 488.452699,162.831899 487.980699,165.552899 C486.181031,175.940004 482.553021,185.64514 477.470575,194.364748 Z M329.870282,198.866202 C320.642625,185.054742 315.261999,168.455358 315.261999,150.597799 C315.261999,143.600799 317.168999,132.988799 320.956999,118.542799 C321.657999,115.871799 324.389999,114.274799 327.061999,114.974799 C329.732999,115.675799 331.329999,118.408799 330.629999,121.079799 C327.042999,134.757799 325.261999,144.669799 325.261999,150.597799 C325.261999,166.639799 330.171999,181.532799 338.564999,193.864799 C335.747123,195.584968 333.001487,197.410568 330.328091,199.331953 C333.039974,203.264473 336.067151,206.962786 339.373114,210.390389 C334.393301,207.974992 329.691672,205.292102 325.267252,202.34069 C326.775335,201.149975 328.310025,199.991466 329.870282,198.866202 Z M492.116767,205.104415 C520.789691,229.317992 538.999899,265.532285 538.999899,305.999799 C538.999899,337.056885 528.274257,365.608863 510.325036,388.153673 C499.464515,358.979906 475.061083,348.059043 447.357972,348.059043 C413.322815,348.059043 397.480367,334.45683 397.480367,308.979616 C397.480367,283.502403 412.266175,280.210085 420.959534,278.366986 C429.652893,276.523887 442.395732,271.564903 445.516175,269.074668 C448.636617,266.584434 447.03888,259.612348 441.046041,262.323285 C435.053203,265.034223 432.481018,265.410931 427.639873,263.991986 C439.976787,263.526491 439.951071,257.582481 444.152242,259.773887 C448.353414,261.965293 448.864156,260.604291 449.655498,259.773887 C451.785536,257.645312 449.330628,256.411908 451.736227,252.195111 C454.141826,247.978314 449.655498,244.091921 445.881735,245.229942 C442.107972,246.367963 435.951071,245.593549 426.627503,244.601361 C421.988727,244.107716 415.439586,240.980591 408.707184,237.962665 C438.835111,237.666146 466.448126,226.588802 491.405962,204.898415 C488.41741,202.424314 485.319394,200.080119 482.117899,197.871799 C491.989899,189.537799 501.474899,179.391799 510.577899,167.389799 C512.580899,164.749799 516.343899,164.232799 518.984899,166.235799 C521.624899,168.237799 522.141899,172.001799 520.138899,174.641799 C511.209834,186.412922 501.866196,196.570062 492.116778,205.104424 Z M315.683972,210.682164 C283.574729,187.782819 265.236542,151.295879 261.021799,101.506799 C260.741799,98.2037987 263.191799,95.3007987 266.493799,95.0217987 C269.795799,94.7417987 272.699799,97.1917987 272.978799,100.493799 C277.013799,148.157799 294.436799,182.172799 325.550799,202.925799 C322.388614,205.42144 319.341332,208.056673 316.422833,210.825948 C333.19322,222.529872 353.657853,230.58736 377.773938,234.953277 C375.615737,236.433008 373.971761,238.309117 371.798076,240.211387 C354.568909,230.659955 332.1568,229.212038 317.541565,241.14433 C337.414612,263.29407 358.436422,256.485476 365.986878,252.712689 C371.798076,250.590293 375.596253,250.611778 375.596253,252.712689 C351.347555,251.471153 333.093649,304.73808 333.093649,364.68209 C333.093649,390.560617 340.780401,411.392945 353.028634,426.497677 C307.035232,405.86548 274.999899,359.673766 274.999899,305.999799 C274.999899,268.531209 290.611108,234.708813 315.683972,210.682164 Z M338.295641,193.266719 C358.309489,181.043337 381.832141,173.999799 406.999899,173.999799 C429.152148,173.999799 450.029894,179.456592 468.362286,189.099326 C457.309915,207.821703 438.60207,221.321635 416.780592,225.576666 C409.294698,226.205694 401.634255,226.071928 393.796241,225.178985 C387.402215,224.450548 381.263091,223.482485 375.378034,222.273913 C360.192251,216.678745 347.256047,206.434324 338.295641,193.266719 Z"/>
  </g>
</svg>
